<svg width="30" height="27" viewBox="0 0 30 27" fill="none" xmlns="http://www.w3.org/2000/svg">
<path d="M20 21V19C20 17.9391 19.5786 16.9217 18.8284 16.1716C18.0783 15.4214 17.0609 15 16 15H8C6.93913 15 5.92172 15.4214 5.17157 16.1716C4.42143 16.9217 4 17.9391 4 19V21M16 7C16 9.20914 14.2091 11 12 11C9.79086 11 8 9.20914 8 7C8 4.79086 9.79086 3 12 3C14.2091 3 16 4.79086 16 7Z" stroke="#667BC6" stroke-width="1.6" stroke-linecap="round" stroke-linejoin="round"/>
<rect x="15" y="14" width="10" height="10" fill="white"/>
<path d="M16 14.9999H17.3333M17.3333 14.9999H28M17.3333 14.9999L17.3333 24.3333C17.3333 24.6869 17.4738 25.026 17.7239 25.2761C17.9739 25.5261 18.313 25.6666 18.6667 25.6666H25.3333C25.687 25.6666 26.0261 25.5261 26.2761 25.2761C26.5262 25.026 26.6667 24.6869 26.6667 24.3333V14.9999M19.3333 14.9999V13.6666C19.3333 13.313 19.4738 12.9738 19.7239 12.7238C19.9739 12.4737 20.313 12.3333 20.6667 12.3333H23.3333C23.687 12.3333 24.0261 12.4737 24.2761 12.7238C24.5262 12.9738 24.6667 13.313 24.6667 13.6666V14.9999M20.6667 18.3333V22.3333M23.3333 18.3333V22.3333" stroke="#D46D6D" stroke-width="1.6" stroke-linecap="round" stroke-linejoin="round"/>
</svg>
