<svg width="28" height="28" viewBox="0 0 28 28" fill="none" xmlns="http://www.w3.org/2000/svg">
<path d="M14 17.5C15.933 17.5 17.5 15.933 17.5 14C17.5 12.067 15.933 10.5 14 10.5C12.067 10.5 10.5 12.067 10.5 14C10.5 15.933 12.067 17.5 14 17.5Z" stroke="#F6F6F6" stroke-width="2" stroke-linecap="round" stroke-linejoin="round"/>
<path d="M22.6334 17.5C22.478 17.8519 22.4317 18.2422 22.5003 18.6207C22.569 18.9991 22.7494 19.3484 23.0184 19.6233L23.0884 19.6933C23.3053 19.91 23.4774 20.1674 23.5948 20.4506C23.7122 20.7339 23.7727 21.0375 23.7727 21.3442C23.7727 21.6508 23.7122 21.9544 23.5948 22.2377C23.4774 22.5209 23.3053 22.7783 23.0884 22.995C22.8716 23.2119 22.6143 23.384 22.331 23.5015C22.0478 23.6189 21.7442 23.6793 21.4375 23.6793C21.1309 23.6793 20.8273 23.6189 20.544 23.5015C20.2607 23.384 20.0034 23.2119 19.7867 22.995L19.7167 22.925C19.4417 22.656 19.0925 22.4756 18.714 22.407C18.3356 22.3384 17.9452 22.3847 17.5934 22.54C17.2483 22.6879 16.954 22.9334 16.7467 23.2464C16.5394 23.5594 16.4282 23.9262 16.4267 24.3017V24.5C16.4267 25.1188 16.1809 25.7123 15.7433 26.1499C15.3057 26.5875 14.7122 26.8333 14.0934 26.8333C13.4745 26.8333 12.881 26.5875 12.4434 26.1499C12.0059 25.7123 11.76 25.1188 11.76 24.5V24.395C11.751 24.0088 11.626 23.6343 11.4013 23.3201C11.1766 23.006 10.8625 22.7667 10.5 22.6333C10.1481 22.478 9.75779 22.4317 9.37933 22.5003C9.00087 22.5689 8.65164 22.7494 8.37669 23.0183L8.30669 23.0883C8.08998 23.3053 7.83264 23.4774 7.54938 23.5948C7.26612 23.7122 6.96249 23.7727 6.65585 23.7727C6.34922 23.7727 6.04559 23.7122 5.76233 23.5948C5.47906 23.4774 5.22172 23.3053 5.00502 23.0883C4.78807 22.8716 4.61597 22.6143 4.49855 22.331C4.38112 22.0478 4.32068 21.7441 4.32068 21.4375C4.32068 21.1309 4.38112 20.8272 4.49855 20.544C4.61597 20.2607 4.78807 20.0034 5.00502 19.7867L5.07502 19.7167C5.34398 19.4417 5.5244 19.0925 5.59302 18.714C5.66165 18.3355 5.61532 17.9452 5.46002 17.5933C5.31213 17.2483 5.06657 16.954 4.75356 16.7467C4.44056 16.5394 4.07377 16.4282 3.69835 16.4267H3.50002C2.88118 16.4267 2.28769 16.1808 1.8501 15.7432C1.41252 15.3057 1.16669 14.7122 1.16669 14.0933C1.16669 13.4745 1.41252 12.881 1.8501 12.4434C2.28769 12.0058 2.88118 11.76 3.50002 11.76H3.60502C3.99118 11.751 4.36569 11.626 4.67987 11.4013C4.99405 11.1765 5.23335 10.8625 5.36669 10.5C5.52199 10.1481 5.56831 9.75776 5.49969 9.3793C5.43107 9.00084 5.25065 8.65161 4.98169 8.37666L4.91169 8.30666C4.69474 8.08995 4.52264 7.83261 4.40521 7.54935C4.28779 7.26609 4.22735 6.96246 4.22735 6.65582C4.22735 6.34919 4.28779 6.04556 4.40521 5.7623C4.52264 5.47903 4.69474 5.22169 4.91169 5.00499C5.12839 4.78804 5.38573 4.61594 5.66899 4.49852C5.95225 4.38109 6.25588 4.32065 6.56252 4.32065C6.86916 4.32065 7.17278 4.38109 7.45605 4.49852C7.73931 4.61594 7.99665 4.78804 8.21335 5.00499L8.28335 5.07499C8.55831 5.34395 8.90754 5.52437 9.286 5.59299C9.66446 5.66162 10.0548 5.61529 10.4067 5.45999H10.5C10.8451 5.3121 11.1394 5.06654 11.3467 4.75353C11.5539 4.44053 11.6652 4.07374 11.6667 3.69832V3.49999C11.6667 2.88115 11.9125 2.28766 12.3501 1.85007C12.7877 1.41249 13.3812 1.16666 14 1.16666C14.6189 1.16666 15.2123 1.41249 15.6499 1.85007C16.0875 2.28766 16.3334 2.88115 16.3334 3.49999V3.60499C16.3348 3.98041 16.4461 4.34719 16.6534 4.6602C16.8607 4.9732 17.155 5.21877 17.5 5.36666C17.8519 5.52196 18.2422 5.56828 18.6207 5.49966C18.9992 5.43104 19.3484 5.25062 19.6234 4.98166L19.6934 4.91166C19.9101 4.69471 20.1674 4.52261 20.4507 4.40518C20.7339 4.28776 21.0375 4.22732 21.3442 4.22732C21.6508 4.22732 21.9545 4.28776 22.2377 4.40518C22.521 4.52261 22.7783 4.69471 22.995 4.91166C23.212 5.12836 23.3841 5.3857 23.5015 5.66896C23.6189 5.95222 23.6794 6.25585 23.6794 6.56249C23.6794 6.86913 23.6189 7.17275 23.5015 7.45602C23.3841 7.73928 23.212 7.99662 22.995 8.21332L22.925 8.28332C22.6561 8.55828 22.4756 8.90751 22.407 9.28597C22.3384 9.66443 22.3847 10.0548 22.54 10.4067V10.5C22.6879 10.8451 22.9335 11.1393 23.2465 11.3466C23.5595 11.5539 23.9263 11.6652 24.3017 11.6667H24.5C25.1189 11.6667 25.7123 11.9125 26.1499 12.3501C26.5875 12.7877 26.8334 13.3812 26.8334 14C26.8334 14.6188 26.5875 15.2123 26.1499 15.6499C25.7123 16.0875 25.1189 16.3333 24.5 16.3333H24.395C24.0196 16.3348 23.6528 16.4461 23.3398 16.6533C23.0268 16.8606 22.7812 17.1549 22.6334 17.5Z" stroke="#F6F6F6" stroke-width="2" stroke-linecap="round" stroke-linejoin="round"/>
</svg>
